<svg xmlns="http://www.w3.org/2000/svg" viewBox="0 0 160 160" role="img" aria-labelledby="title">
  <title>Live timetable illustration</title>
  <defs>
    <linearGradient id="bg" x1="24" y1="20" x2="136" y2="140" gradientUnits="userSpaceOnUse">
      <stop stop-color="#f1f7ff"/>
      <stop offset="1" stop-color="#d8ebff"/>
    </linearGradient>
    <linearGradient id="screen" x1="43" y1="38" x2="120" y2="122" gradientUnits="userSpaceOnUse">
      <stop stop-color="#2876df"/>
      <stop offset="1" stop-color="#084aa8"/>
    </linearGradient>
  </defs>
  <rect width="160" height="160" rx="36" fill="url(#bg)"/>
  <path d="M44 52c0-8 6-14 14-14h48c8 0 14 6 14 14v58c0 8-6 14-14 14H58c-8 0-14-6-14-14V52Z" fill="url(#screen)"/>
  <path d="M59 62h46M59 79h46M59 96h31" stroke="#fff" stroke-width="7" stroke-linecap="round" opacity=".92"/>
  <circle cx="110" cy="98" r="20" fill="#bfe0ff"/>
  <path d="M110 88v11l8 6" stroke="#084aa8" stroke-width="5" stroke-linecap="round" stroke-linejoin="round"/>
  <path d="M64 35v16M100 35v16" stroke="#084aa8" stroke-width="7" stroke-linecap="round"/>
  <circle cx="38" cy="119" r="16" fill="#fff" opacity=".7"/>
</svg>
